<?xml version="1.0" encoding="utf-8"?>
<!-- Generator: Adobe Illustrator 27.0.0, SVG Export Plug-In . SVG Version: 6.00 Build 0)  -->
<svg version="1.1" id="Capa_1" xmlns="http://www.w3.org/2000/svg" xmlns:xlink="http://www.w3.org/1999/xlink" x="0px" y="0px"
	 viewBox="0 0 24 24" style="enable-background:new 0 0 24 24;" xml:space="preserve">
<style type="text/css">
	.st0{fill:#181818;}
	.st1{fill:#FFFFFF;}
</style>
<rect class="st0" width="24" height="24"/>
<path class="st1" d="M11.8,4.4L9.2,5.1L5.9,17.5c0,0.1,0,0.2,0,0.3c0,0.8,0.7,1.5,1.5,1.5h8.9c0.8,0,1.5-0.7,1.5-1.5
	c0-0.1,0-0.2,0-0.3l-1-3.8l-1.2,1.2l0.1,0.7h-2.8l2.1-2.1l-1-1l-3.1,3.1H7.9L10.5,6h2.5l1.1,4l1.2-1.2l-1-3.8L11.8,4.4z M11.2,6.8
	V14l1.1-1.1V6.8H11.2z M17.6,8.9L15.5,11l-0.5-0.5l-1,1.1l2.1,2.1l1.1-1L16.5,12l2.1-2.1L17.6,8.9z"/>
</svg>
